<svg width="17" height="17" viewBox="0 0 17 17" fill="none" xmlns="http://www.w3.org/2000/svg">
<g clip-path="url(#clip0_8_671)">
<path d="M1.52246 6.83175C1.52247 6.09007 1.74747 5.36583 2.16773 4.7547C2.58798 4.14357 3.18373 3.67429 3.87629 3.40885C4.56885 3.14341 5.32564 3.09429 6.0467 3.26798C6.76776 3.44167 7.41917 3.83 7.9149 4.38168C7.94982 4.41902 7.99203 4.44878 8.03892 4.46913C8.08581 4.48948 8.13638 4.49998 8.1875 4.49998C8.23862 4.49998 8.28919 4.48948 8.33608 4.46913C8.38297 4.44878 8.42518 4.41902 8.4601 4.38168C8.95427 3.82642 9.60583 3.43482 10.3281 3.25902C11.0503 3.08322 11.8089 3.13155 12.503 3.39758C13.1971 3.6636 13.7937 4.13471 14.2134 4.74819C14.6332 5.36168 14.8561 6.08844 14.8525 6.83175C14.8525 8.35804 13.8528 9.49777 12.853 10.4975L9.19259 14.0387C9.0684 14.1813 8.91527 14.2959 8.7434 14.3748C8.57152 14.4537 8.38481 14.4951 8.19569 14.4963C8.00657 14.4975 7.81936 14.4584 7.64649 14.3817C7.47362 14.305 7.31906 14.1924 7.19308 14.0513L3.52197 10.4975C2.52222 9.49777 1.52246 8.36471 1.52246 6.83175Z" stroke="#717182" stroke-width="1.33301" stroke-linecap="round" stroke-linejoin="round"/>
</g>
<defs>
<clipPath id="clip0_8_671">
<rect width="15.9961" height="15.9961" fill="white" transform="translate(0.189453 0.5)"/>
</clipPath>
</defs>
</svg>
