<svg width="19" height="16" viewBox="0 0 19 16" fill="none" xmlns="http://www.w3.org/2000/svg">
<path d="M0.833332 5.4301C0.833349 4.50276 1.11466 3.59725 1.64011 2.83315C2.16556 2.06905 2.91043 1.48231 3.77634 1.15043C4.64225 0.818546 5.58846 0.757132 6.49001 0.974299C7.39155 1.19147 8.20602 1.677 8.82583 2.36676C8.86949 2.41344 8.92227 2.45065 8.9809 2.4761C9.03953 2.50154 9.10275 2.51467 9.16667 2.51467C9.23058 2.51467 9.29381 2.50154 9.35244 2.4761C9.41107 2.45065 9.46384 2.41344 9.5075 2.36676C10.1254 1.67251 10.94 1.1829 11.843 0.963097C12.746 0.743292 13.6946 0.803717 14.5624 1.13633C15.4302 1.46895 16.1762 2.05797 16.7009 2.82501C17.2257 3.59205 17.5044 4.50073 17.5 5.4301C17.5 7.33843 16.25 8.76343 15 10.0134L10.4233 14.4409C10.2681 14.6193 10.0766 14.7625 9.8617 14.8612C9.6468 14.9598 9.41337 15.0116 9.17691 15.0131C8.94045 15.0146 8.70637 14.9658 8.49024 14.8699C8.2741 14.7739 8.08086 14.6331 7.92333 14.4568L3.33333 10.0134C2.08333 8.76343 0.833332 7.34676 0.833332 5.4301Z" fill="#FF0000" stroke="#FB2C36" stroke-width="1.66667" stroke-linecap="round" stroke-linejoin="round"/>
</svg>
