<svg width="21" height="21" viewBox="0 0 21 21" fill="none" xmlns="http://www.w3.org/2000/svg">
<path d="M11.1917 2.35379C10.9745 2.25475 10.7387 2.20349 10.5 2.20349C10.2614 2.20349 10.0255 2.25475 9.80834 2.35379L2.66668 5.60379C2.5188 5.66899 2.39308 5.77579 2.30481 5.91117C2.21655 6.04655 2.16956 6.20468 2.16956 6.36629C2.16956 6.5279 2.21655 6.68603 2.30481 6.82141C2.39308 6.95679 2.5188 7.06359 2.66668 7.12879L9.81668 10.3871C10.0338 10.4862 10.2697 10.5374 10.5083 10.5374C10.747 10.5374 10.9829 10.4862 11.2 10.3871L18.35 7.13712C18.4979 7.07192 18.6236 6.96512 18.7119 6.82974C18.8001 6.69436 18.8471 6.53623 18.8471 6.37462C18.8471 6.21301 18.8001 6.05488 18.7119 5.9195C18.6236 5.78412 18.4979 5.67733 18.35 5.61212L11.1917 2.35379Z" stroke="#4A5565" stroke-width="1.66667" stroke-linecap="round" stroke-linejoin="round"/>
<path d="M2.16666 10.5371C2.16626 10.6965 2.21159 10.8527 2.29726 10.9871C2.38292 11.1215 2.50534 11.2285 2.64999 11.2954L9.81666 14.5538C10.0327 14.6516 10.267 14.7022 10.5042 14.7022C10.7413 14.7022 10.9757 14.6516 11.1917 14.5538L18.3417 11.3038C18.4892 11.2375 18.6142 11.1297 18.7015 10.9936C18.7888 10.8574 18.8346 10.6988 18.8333 10.5371" stroke="#4A5565" stroke-width="1.66667" stroke-linecap="round" stroke-linejoin="round"/>
<path d="M2.16666 14.7038C2.16626 14.8632 2.21159 15.0193 2.29726 15.1538C2.38292 15.2882 2.50534 15.3952 2.64999 15.4621L9.81666 18.7205C10.0327 18.8183 10.267 18.8689 10.5042 18.8689C10.7413 18.8689 10.9757 18.8183 11.1917 18.7205L18.3417 15.4705C18.4892 15.4042 18.6142 15.2964 18.7015 15.1602C18.7888 15.0241 18.8346 14.8655 18.8333 14.7038" stroke="#4A5565" stroke-width="1.66667" stroke-linecap="round" stroke-linejoin="round"/>
</svg>
