<svg width="17" height="17" viewBox="0 0 17 17" fill="none" xmlns="http://www.w3.org/2000/svg">
<path d="M9.46616 4.2011C9.65118 4.29356 9.85518 4.34169 10.062 4.34169C10.2688 4.34169 10.4728 4.29356 10.6579 4.2011L13.0966 2.9814C13.1983 2.93059 13.3113 2.90663 13.4249 2.9118C13.5384 2.91697 13.6488 2.9511 13.7454 3.01095C13.8421 3.0708 13.9218 3.15437 13.977 3.25372C14.0323 3.35308 14.0612 3.46491 14.061 3.57859V12.0858C14.061 12.2096 14.0265 12.3309 13.9614 12.4361C13.8963 12.5413 13.8032 12.6264 13.6925 12.6817L10.6579 14.1993C10.4728 14.2918 10.2688 14.3399 10.062 14.3399C9.85518 14.3399 9.65118 14.2918 9.46616 14.1993L6.65884 12.7957C6.47382 12.7032 6.26983 12.6551 6.06299 12.6551C5.85615 12.6551 5.65216 12.7032 5.46714 12.7957L3.0284 14.0154C2.92666 14.0662 2.8136 14.0902 2.69998 14.085C2.58637 14.0798 2.47597 14.0456 2.3793 13.9857C2.28263 13.9257 2.20291 13.8421 2.14771 13.7426C2.09252 13.6432 2.06369 13.5313 2.06397 13.4175V4.91093C2.06403 4.78719 2.09855 4.6659 2.16364 4.56067C2.22874 4.45543 2.32185 4.37039 2.43254 4.31508L5.46714 2.79745C5.65216 2.70499 5.85615 2.65686 6.06299 2.65686C6.26983 2.65686 6.47382 2.70499 6.65884 2.79745L9.46616 4.2011Z" stroke="#030213" stroke-width="1.33301" stroke-linecap="round" stroke-linejoin="round"/>
<path d="M10.062 4.34174V14.3393" stroke="#030213" stroke-width="1.33301" stroke-linecap="round" stroke-linejoin="round"/>
<path d="M6.06299 2.6568V12.6544" stroke="#030213" stroke-width="1.33301" stroke-linecap="round" stroke-linejoin="round"/>
</svg>
