<svg width="16" height="16" viewBox="0 0 16 16" fill="none" xmlns="http://www.w3.org/2000/svg">
<path d="M9.40171 3.7011C9.58673 3.79356 9.79073 3.84169 9.99756 3.84169C10.2044 3.84169 10.4084 3.79356 10.5934 3.7011L13.0322 2.4814C13.1338 2.43059 13.2468 2.40663 13.3604 2.4118C13.474 2.41697 13.5843 2.4511 13.681 2.51095C13.7776 2.5708 13.8574 2.65437 13.9126 2.75372C13.9678 2.85308 13.9968 2.96491 13.9966 3.07859V11.5858C13.9965 11.7096 13.962 11.8309 13.8969 11.9361C13.8318 12.0413 13.7387 12.1264 13.628 12.1817L10.5934 13.6993C10.4084 13.7918 10.2044 13.8399 9.99756 13.8399C9.79073 13.8399 9.58673 13.7918 9.40171 13.6993L6.59439 12.2957C6.40937 12.2032 6.20537 12.1551 5.99854 12.1551C5.7917 12.1551 5.5877 12.2032 5.40268 12.2957L2.96394 13.5154C2.8622 13.5662 2.74915 13.5902 2.63553 13.585C2.52191 13.5798 2.41152 13.5456 2.31485 13.4857C2.21818 13.4257 2.13845 13.3421 2.08326 13.2426C2.02806 13.1432 1.99923 13.0313 1.99951 12.9175V4.41093C1.99958 4.28719 2.03409 4.1659 2.09919 4.06067C2.16429 3.95543 2.2574 3.87039 2.36809 3.81508L5.40268 2.29745C5.5877 2.20499 5.7917 2.15686 5.99854 2.15686C6.20537 2.15686 6.40937 2.20499 6.59439 2.29745L9.40171 3.7011Z" stroke="#717182" stroke-width="1.33301" stroke-linecap="round" stroke-linejoin="round"/>
<path d="M9.99756 3.84174V13.8393" stroke="#717182" stroke-width="1.33301" stroke-linecap="round" stroke-linejoin="round"/>
<path d="M5.99854 2.1568V12.1544" stroke="#717182" stroke-width="1.33301" stroke-linecap="round" stroke-linejoin="round"/>
</svg>
