<svg width="17" height="17" viewBox="0 0 17 17" fill="none" xmlns="http://www.w3.org/2000/svg">
<g clip-path="url(#clip0_8_674)">
<path d="M10.1121 4.69899C9.98995 4.82358 9.92154 4.99109 9.92154 5.16555C9.92154 5.34001 9.98995 5.50751 10.1121 5.6321L11.1785 6.69851C11.3031 6.82063 11.4706 6.88903 11.645 6.88903C11.8195 6.88903 11.987 6.82063 12.1116 6.69851L14.1817 4.62901C14.395 4.4144 14.7569 4.48238 14.8369 4.77431C15.0383 5.50671 15.0269 6.28132 14.8041 7.00749C14.5813 7.73366 14.1563 8.38136 13.5788 8.8748C13.0013 9.36824 12.2953 9.687 11.5432 9.79379C10.7912 9.90059 10.0243 9.79099 9.33226 9.47783L4.06021 14.7499C3.79506 15.0149 3.43547 15.1638 3.06055 15.1637C2.68563 15.1637 2.3261 15.0147 2.06103 14.7495C1.79597 14.4844 1.64709 14.1248 1.64716 13.7499C1.64722 13.375 1.79621 13.0154 2.06137 12.7504L7.33341 7.47832C7.02025 6.78629 6.91065 6.01939 7.01744 5.26735C7.12424 4.51532 7.443 3.80924 7.93644 3.23176C8.42988 2.65428 9.07757 2.22927 9.80375 2.00647C10.5299 1.78367 11.3045 1.77229 12.0369 1.97366C12.3289 2.05364 12.3968 2.41488 12.1829 2.6295L10.1121 4.69899Z" stroke="#717182" stroke-width="1.33301" stroke-linecap="round" stroke-linejoin="round"/>
</g>
<defs>
<clipPath id="clip0_8_674">
<rect width="15.9961" height="15.9961" fill="white" transform="translate(0.314453 0.5)"/>
</clipPath>
</defs>
</svg>
