<svg width="17" height="17" viewBox="0 0 17 17" fill="none" xmlns="http://www.w3.org/2000/svg">
<path d="M10.9585 14.4595V9.12744C10.9585 8.95067 10.8883 8.78115 10.7633 8.65615C10.6383 8.53116 10.4688 8.46094 10.292 8.46094H7.62598C7.44921 8.46094 7.27968 8.53116 7.15469 8.65615C7.02969 8.78115 6.95947 8.95067 6.95947 9.12744V14.4595" stroke="white" stroke-width="1.33301" stroke-linecap="round" stroke-linejoin="round"/>
<path d="M2.96045 7.12793C2.9604 6.93402 3.00266 6.74244 3.08428 6.56654C3.16589 6.39065 3.2849 6.23468 3.433 6.10951L8.09853 2.11049C8.33913 1.90714 8.64397 1.79558 8.95898 1.79558C9.274 1.79558 9.57884 1.90714 9.81944 2.11049L14.485 6.10951C14.6331 6.23468 14.7521 6.39065 14.8337 6.56654C14.9153 6.74244 14.9576 6.93402 14.9575 7.12793V13.1265C14.9575 13.48 14.8171 13.8191 14.5671 14.069C14.3171 14.319 13.978 14.4595 13.6245 14.4595H4.29346C3.93992 14.4595 3.60087 14.319 3.35088 14.069C3.10089 13.8191 2.96045 13.48 2.96045 13.1265V7.12793Z" stroke="white" stroke-width="1.33301" stroke-linecap="round" stroke-linejoin="round"/>
</svg>
