<svg width="13" height="13" viewBox="0 0 13 13" fill="none" xmlns="http://www.w3.org/2000/svg">
<g clip-path="url(#clip0_9_1673)">
<path d="M10.2943 5.53975C10.2943 8.03463 7.52659 10.6329 6.5972 11.4354C6.51062 11.5005 6.40522 11.5357 6.2969 11.5357C6.18857 11.5357 6.08317 11.5005 5.99659 11.4354C5.0672 10.6329 2.2995 8.03463 2.2995 5.53975C2.2995 4.47958 2.72065 3.46283 3.47031 2.71317C4.21997 1.96351 5.23672 1.54236 6.2969 1.54236C7.35707 1.54236 8.37382 1.96351 9.12348 2.71317C9.87314 3.46283 10.2943 4.47958 10.2943 5.53975Z" stroke="#4A5565" stroke-width="0.999349" stroke-linecap="round" stroke-linejoin="round"/>
<path d="M6.29688 7.0387C7.12476 7.0387 7.7959 6.36756 7.7959 5.53967C7.7959 4.71179 7.12476 4.04065 6.29688 4.04065C5.46899 4.04065 4.79785 4.71179 4.79785 5.53967C4.79785 6.36756 5.46899 7.0387 6.29688 7.0387Z" stroke="#4A5565" stroke-width="0.999349" stroke-linecap="round" stroke-linejoin="round"/>
</g>
<defs>
<clipPath id="clip0_9_1673">
<rect width="11.9922" height="11.9922" fill="white" transform="translate(0.300781 0.542969)"/>
</clipPath>
</defs>
</svg>
