<svg width="30" height="30" viewBox="0 0 30 30" fill="none" xmlns="http://www.w3.org/2000/svg">
<path d="M12.0886 5.17C12.1575 4.44542 12.4941 3.77255 13.0325 3.28285C13.571 2.79314 14.2727 2.52178 15.0005 2.52178C15.7284 2.52178 16.4301 2.79314 16.9685 3.28285C17.507 3.77255 17.8435 4.44542 17.9124 5.17C17.9538 5.63807 18.1073 6.08927 18.3601 6.48542C18.6128 6.88157 18.9572 7.21101 19.3642 7.44584C19.7712 7.68068 20.2288 7.814 20.6983 7.83452C21.1677 7.85505 21.6352 7.76217 22.0611 7.56375C22.7225 7.26347 23.472 7.22002 24.1636 7.44186C24.8553 7.66369 25.4397 8.13494 25.803 8.76388C26.1664 9.39282 26.2828 10.1345 26.1294 10.8445C25.9761 11.5545 25.5641 12.182 24.9736 12.605C24.5891 12.8748 24.2752 13.2333 24.0585 13.65C23.8418 14.0668 23.7287 14.5296 23.7287 14.9994C23.7287 15.4691 23.8418 15.9319 24.0585 16.3487C24.2752 16.7655 24.5891 17.1239 24.9736 17.3937C25.5641 17.8167 25.9761 18.4443 26.1294 19.1543C26.2828 19.8643 26.1664 20.6059 25.803 21.2349C25.4397 21.8638 24.8553 22.3351 24.1636 22.5569C23.472 22.7787 22.7225 22.7353 22.0611 22.435C21.6352 22.2366 21.1677 22.1437 20.6983 22.1642C20.2288 22.1847 19.7712 22.3181 19.3642 22.5529C18.9572 22.7877 18.6128 23.1172 18.3601 23.5133C18.1073 23.9095 17.9538 24.3607 17.9124 24.8287C17.8435 25.5533 17.507 26.2262 16.9685 26.7159C16.4301 27.2056 15.7284 27.477 15.0005 27.477C14.2727 27.477 13.571 27.2056 13.0325 26.7159C12.4941 26.2262 12.1575 25.5533 12.0886 24.8287C12.0473 24.3605 11.8938 23.9091 11.641 23.5128C11.3882 23.1165 11.0436 22.787 10.6364 22.5522C10.2293 22.3173 9.77148 22.184 9.30187 22.1636C8.83225 22.1432 8.36464 22.2363 7.93864 22.435C7.27725 22.7353 6.5278 22.7787 5.83614 22.5569C5.14448 22.3351 4.56011 21.8638 4.19675 21.2349C3.83339 20.6059 3.71704 19.8643 3.87034 19.1543C4.02365 18.4443 4.43564 17.8167 5.02614 17.3937C5.41067 17.1239 5.72455 16.7655 5.94125 16.3487C6.15795 15.9319 6.27108 15.4691 6.27108 14.9994C6.27108 14.5296 6.15795 14.0668 5.94125 13.65C5.72455 13.2333 5.41067 12.8748 5.02614 12.605C4.43647 12.1818 4.02521 11.5545 3.87227 10.845C3.71933 10.1355 3.83565 9.39442 4.19862 8.76589C4.56159 8.13735 5.14528 7.66622 5.83626 7.44405C6.52723 7.22188 7.27612 7.26454 7.93739 7.56375C8.36334 7.76217 8.83082 7.85505 9.30027 7.83452C9.76971 7.814 10.2273 7.68068 10.6343 7.44584C11.0413 7.21101 11.3858 6.88157 11.6385 6.48542C11.8912 6.08927 12.0447 5.63807 12.0861 5.17" stroke="white" stroke-width="1.33301" stroke-linecap="round" stroke-linejoin="round"/>
<path d="M15 18.75C17.0711 18.75 18.75 17.0711 18.75 15C18.75 12.9289 17.0711 11.25 15 11.25C12.9289 11.25 11.25 12.9289 11.25 15C11.25 17.0711 12.9289 18.75 15 18.75Z" stroke="white" stroke-width="1.33301" stroke-linecap="round" stroke-linejoin="round"/>
</svg>
