<svg width="16" height="16" viewBox="0 0 16 16" fill="none" xmlns="http://www.w3.org/2000/svg">
<g clip-path="url(#clip0_8_732)">
<path d="M11.6451 9.58566C11.4472 9.48635 10.4734 9.0078 10.2921 8.94115C10.1102 8.87517 9.97821 8.84251 9.84557 9.04113C9.71427 9.23908 9.33436 9.68497 9.21906 9.81694C9.10375 9.94957 8.98778 9.96557 8.78983 9.86692C8.59188 9.76695 7.95337 9.55833 7.19689 8.88383C6.60836 8.35863 6.21046 7.71012 6.09515 7.5115C5.97985 7.31355 6.08316 7.20624 6.1818 7.1076C6.27111 7.01895 6.38042 6.87632 6.47906 6.76101C6.57837 6.64504 6.61103 6.5624 6.67768 6.42976C6.74366 6.29779 6.711 6.18249 6.66102 6.08318C6.61103 5.98387 6.21512 5.00878 6.0505 4.61221C5.8892 4.2263 5.72591 4.27895 5.60461 4.27229C5.4893 4.26696 5.35733 4.26562 5.2247 4.26562C5.09273 4.26562 4.87812 4.31494 4.69683 4.51356C4.51554 4.71151 4.00366 5.19073 4.00366 6.16583C4.00366 7.14026 4.71349 8.08203 4.81213 8.21466C4.91144 8.34663 6.20913 10.3475 8.19597 11.2053C8.66853 11.4092 9.0371 11.5312 9.32503 11.6218C9.79958 11.7731 10.2315 11.7518 10.5721 11.7005C10.9526 11.6438 11.7438 11.2213 11.9091 10.7587C12.0744 10.2962 12.0744 9.89958 12.0244 9.81694C11.9751 9.73429 11.8438 9.68497 11.6451 9.58566ZM8.03135 14.5198H8.02868C6.84882 14.5199 5.69064 14.2027 4.6755 13.6013L4.43489 13.4587L1.9415 14.1132L2.60667 11.6818L2.45004 11.4325C1.7905 10.3823 1.44158 9.16689 1.44362 7.92673C1.44429 4.29428 4.40023 1.339 8.03401 1.339C9.79358 1.339 11.4478 2.0255 12.6915 3.27053C13.3052 3.88146 13.7916 4.60802 14.1225 5.40817C14.4535 6.20832 14.6225 7.06617 14.6197 7.93206C14.6177 11.5645 11.6625 14.5198 8.03135 14.5198ZM13.6386 2.32476C12.9043 1.58556 12.0305 0.999444 11.068 0.600384C10.1055 0.201324 9.07332 -0.00274735 8.03135 -3.20587e-06C3.66241 -3.20587e-06 0.106614 3.5558 0.104614 7.92606C0.104614 9.32306 0.469192 10.6867 1.16302 11.8884L0.0379639 15.9961L4.24027 14.8937C5.40238 15.5268 6.70463 15.8586 8.02802 15.8588H8.03135C12.3996 15.8588 15.9561 12.303 15.9581 7.93206C16.04 5.86805 15.3081 3.85441 13.9199 2.32476" fill="#00A63E"/>
</g>
<defs>
<clipPath id="clip0_8_732">
<rect width="15.9961" height="15.9961" fill="white"/>
</clipPath>
</defs>
</svg>
